<svg xmlns="http://www.w3.org/2000/svg" viewBox="0 0 334.11 52.8"><defs><style>.cls-1{fill:#221e1f;fill-rule:evenodd;}</style></defs><g id="图层_2" data-name="图层 2"><g id="图层_1-2" data-name="图层 1"><path class="cls-1" d="M28.49,43.73,29,43.5l.61-.07.73,0,.56.1.51.38.2,1.17-.15.72-.77.36-.55.57-.43.34-.79,0,.22-.45-.62,0-.4-.38L28,45.36l0-.78ZM23.8,39.47l.8.66,5.09.28,1.17-.19,1.21-.59.67-.12.95-.08,1.85.46.81.88.42,1.39.48,1.33-.07,1.56-.06,2.13-.48.73-.3,1.46-.42,1-.38.73-.71.63a9.93,9.93,0,0,1-4.25-.13l.1-.56-1.39.19-.43.8-.66.46-.89.13-.79-.32a17.65,17.65,0,0,1-4.73-6.27l-.27-1.56.35-2-.18-.5,1.14-1.31Zm3.36-4.09-1.3-.48-.49-2,1-1.48.81-.85.54-.69.62-.06,1-.47.61-.07c1.8-.24,3.39-.26,5-.33l.65,1.16-.08,1.56-.19,1.12-.55.57-.42.91-.88.57-.6.63-.66.24-.61.07-.79,0-.89.13-.81.85-.55.57-.65.69-.51-.27.14-1.07ZM.37,41.49c2.62-2,5.33-3.81,6.93-6.84a2.93,2.93,0,0,1,.66-1l2.46-2.31a79.52,79.52,0,0,0,8.17-8.8c2.76-3,2.57-5.46,3.23-8C24,10.83,25.57,7,29.39,3.69c1-.59,3.48-.1,4.32.4a18.81,18.81,0,0,1,.58,10.63c-.14.69.73,2.68.74,3.37a52.61,52.61,0,0,1,9.12,6.68c1.08,1,2.38,1.79,3.51,2.92,5.86,1.09,15.47,2,16.36,4.14.84,1.76,0,3.24-2.63,4.47a50.4,50.4,0,0,1-12,1.13,3.3,3.3,0,0,1-2.57-1.06,81.47,81.47,0,0,0-8.61-6.06l-.92-.59L37,28.9l-.78-.75-1.06-.27L34,26.46c-2.71-4-5.62-5-8.78-2.45L23,25.44c-.64.41-.68,1.37-1.07,2.06L21,29l-1.08.61-.72,1.53-1.7,1.78-1.2.49a8.34,8.34,0,0,1-1.83,2.07l-3,2.06c-.78.94-1.71,1.83-2.51,2.79l-.24.5a1,1,0,0,1-.51.59l-.67.38c-.38.21-.31.55-.31,1s-.05.36-.3.56L6,44l-.82.7-1.67,0-1.19-.15-.79-.26-.62-.59-.24-.53C.21,42.45-.4,42.09.37,41.49Z"/><path class="cls-1" d="M86.48,17.25l-1.21-.18-.74.33-.78.5-.53.89-.11.89-.3.61.46,1.35.31.91.88.94.7.24.57.46,1.09-.43.59-.37.43-.82.23-.7-.14-1.29,0-.67-.08-.77-.34-.75L87,17.87ZM84.62,27.49,84,27.15l-.47.3-.2.71.35.69.72-.05,0,.6.37.59.6,0,.83.13.68-.36.62-.32.3-.43-.21-.86-.64-.09-.41-.64h-.76Zm13.18-.61,1.61-.13.46.71.74.86.12.61.84.87.1.94-.24.56-.57.36-.47.2-.49-.59-.29-.62L99,30.52l-.42-.64-.08-.45L98.14,29,98,28.27Zm2.67-5.54-.24,1.36.06.87.55.55.6.93.65.08.53.67,1.22,0,.77.11.61-.3.16-1,0-1-.13-.83L104.6,22l-.9-.32-.82-.18-.87-.25-.88-.14Zm-5.57,7.6-1.32-1-.32-.5-.36-1.18.22-1.55a13.17,13.17,0,0,1,4.52-4.2l2.28-1.46,2.5-1.1a11.52,11.52,0,0,1,4.23-.29l2.12.65,2.1.45c2.28.85,1.38,2.48.17,4l-1,2.05-1.18,2.07L108,28.47l-.7,1.25L105.42,31l-1.1,1.41-1.55,1.19-1.56,1-.84,1.34c-.39,2.73.48,4.52,2.63,5.36l2.74.06,3.9-.19c1.58,0,3.21-.34,4.79-.38l2.63-.24,1.27-.21a1.62,1.62,0,0,0,.68-1.39l.55-1.22-.18-2.8-.2-.77-.63-.51-.15-.4V31.8l.83-.74.76.42.76,1.33.29.61.33,1.3.51.79.42,1.13.64,1,.83,1a2.52,2.52,0,0,1,.45,4.14l-.51.93-2.08.83-1.34.56-1.63.74-1.25.4-2.56.23-1.1-.3L112.63,46l-1.71-.31-1.15.23-.88-.44-1.15-.37h-1.4l-1.29,0-1.88-.1-1.5-.15h-1.4l-1.22,0-1.16-.87L97,43l-.64-1-.43-.83-.26-1.35-.3-1.72.09-1.26,0-1-.33-1.3,0-1,.51-1.23.35-1-.39-.76-.24-.85ZM71.83,51.65l-.2-1.39-.07-1.6.06-1.83-.16-1.54-.22-2.47.42-1.92.51-2,1.24-1.49.42-.4L74,36l1-.62.21-1,.54-.21.38-1.34.62-1,.12-1.31L77,29.37l.21-1,.15-1.47,0-1.66,0-1.67-.14-.87.48-.31-.19-1.8L77.75,19,78,17.72l.38-1.34s2.82-4.56,3.66-5,4-.21,4-.21l.88-1c1.87-.61,3.46-.8,4.45-.11l1,.31L93,11.67l.1,1.87-.38,1.33-.61.54-.72,1-.1,2,.13,1.71-.24,1.11-.36.51v3.85l-.43.82.35,5.68-.62,1L89.9,35l.33,1.58.87,1.36A4,4,0,0,1,92,40.64c0,2.31-1.73,5.07-2.9,3.78l-.81-1.26-.81-1.27-1.2-1.43L86,39.71l1-1.2L87.05,37l0-1.25-.52-1.46-1.11-.66-1.15-.5-.83,0-1,.62-1.08,1.1-.76,1.59-.72,1-.31,1.44.47,2.44-.43.83-.59,1.21-.37.92-.3.6.16,2-.55.63,0,.67-1.45.52-.49.31-.68.44-.65.69-.89,1.39-.93.46Z"/><path class="cls-1" d="M142.14,20.29l1.85-.94,1.14-.4,1.49-.71,1.15-.39,1.41-.29L150.7,17l1.07-.38,1.81-.36.48-.43a49.25,49.25,0,0,1,10.13-1.05c1.29,0,2.15,1.47,1.51,3.3l-.34,1.55-.53,1.83-.71.55-1.35.6-.67.71L161,24l-.54,1-.61,1-.43,1.07-.69,1.45-1.22,1.23-.87.17-.77.65-1.49.3-.8.49-.89.83-.36.65-.79.57.07,1.13-.11,1.09,1,0,1.94-.14,1.68-.18,1.24-.33,1.25-.25,1.34-.68.83-.33,1.72-.35,1.26-.25,1.1-.22.86-.17,1,0c3.34.26,7.51.77,7,4.9l-1.06.79-.85.25-1.57.32H169l-1.2.08-.93-.14-1.41-.13-.85-.16L163,38.06l-1.1-.19-1.08-.11-1.5-.11-.39.08-1-.12-1.76.18-1.05.05-.8-.33-.38.57-1.43.2-.58,0-1.84.2-1.51.22-1.09.22-.63.13-.3.55-1.33-.14-.76.32-1,.69-1.26.25c-.16,1-.83,1.9-2.58,2.57l-1.07.38-.94.19-1,.12-1.16-.09-1.29-.31-.85-.16-.88-.32-.88-.31L131,42l-.11-1-.09-1.29.78-1,.77-.65,1.79-.44,1-.2,1.41-.29.79-.15,1.28-.1,1.1-.22.71-.14,1.74-.27,1.2-.16.86-.58.88-.51.69-1,.17-.77.31-.88.52-.68.59-.69.68-.71.14-.93.47-.51.28-.63-.74-.42-.53-.22-.48-.32-.59-.12-.65,0-1.11-.27-1.12-.27-.85-.57-.58-.45-.55-.71-.13-.63v-.82l-.14-.71.14-.52.14-.93,0-.49Z"/><path class="cls-1" d="M211.48,17.83l-.35-.67.1-.84.24-1.14.51-.69.7-.55.87-.11.84.1.47.48-.07.63-.1.84-.55.14-.17.52-.1.83-.68.75-.82.25ZM199.9,22.9l.72-.54,1-.38.59-.43,1.86-.25.1,1.51-1.07.2-1.31.27-.77.22-.78,0Zm20,19.53-.78,0-.42.34-.26.55-.57-.07h-1.15l-.63-.07-.49.33-.08.69v.64l0,.71,0,.71.07.52-.06.45-.4.21.59.9,1.06.84,1,.44.91-.08.42-.28.61-.31.23-.29.43-.4.47-.14.21-.75.47-.71.17-.37.09-.76-.17-.66.06-.57-.57-.59-.65-.46-.19-.54ZM197.59,23.84l.1-.84.23-1,.61-.67.37-1.11-.75-.3,0-.55-.12-.76.33-1V16.7l1.22-1.34a3.9,3.9,0,0,1,3.13-.38l1.08-1-.15-2.35-.32-1.74c1.16-3,2.45-4.53,3.84-4.65a7.22,7.22,0,0,1,4.92-.26l.83,1,.41,2,.46.59.39,1.21,1.12.35.51-.68L217,7.86,218.41,6c1.42-2.35,3.71-2.92,4.39-2.68.87.31,1.71,2.1,1.77,5.19l.72.39,1.56.27h1.64a3.36,3.36,0,0,1,1.07,2,2.47,2.47,0,0,1-2.89,2.2l-3.76.4q-2.29,1.86.12,3.42l2-.19,1.24.36,1.25.15,1.31-.27,1.36.16c1.07.69.46,4-1,4.27l-1.26,0-.79.33-5.49.62c.05,1.81,1.12,3.66-.76,3.94-3.73.57-6.08,3.78-3.68,6.59.36,2.56-.53,3.89-2.42,5.32-.41.31-.54,1-1,1.33s-.79,1.93-1.12,2.27c-.07,6.62,3.82,10.59-2,10.7a2.68,2.68,0,0,1-1.87-.48l-2.7-1.65-1.32-1.43-1.15-.14-2-.23c-.55-.2-1.18-.82-1.95-2.36l.33-1.87,1.24-1.45c1.82-.45,3.43-.43,3.86.56l-.5.38-.08.94.13,1.6,1.19.68,1.75.52,1.24-.06.48-1,.55-1.1c.25-1.18-.42-1.82-.63-2.73l-1.6,0-.9-.43c-.86-.59-1-1.24-.44-2l1.63-1.84a6.53,6.53,0,0,0,.15-3.91l-1-1-.52-1-.89-.53-1.07-.87-.16-1.3.13-1.15.75-.87.54-1,1.13-.61,1.52-.24c.32.31.92.16,1.13.48,1.31,2.07,1.56,3.3,4.35.81l1-.42,2-1.13,1.2-1.14,1.33-.48.93-.63-.12-.76-1.16-.14h-1l-.68.34-1.26-.15-1-.12-1.32.37-.84-.1-.78.34-.69.44-5,.47-5.35.32-1.17.92-1.66.55-.65.41c-.32.08-.59.4-.95.25l-1-.12-1.5.14-1.5,1a1.18,1.18,0,0,1-.85.54l-1.22-.14-.57.35c-6.81,2.78-8.83,3.17-8.17.92.27-.93,2.47-2.17,4.75-2.85a7,7,0,0,1,3.71-.48l1.21-.39,1.43-.36,1.53-.35,1.51-.24.9-.43Z"/><path class="cls-1" d="M244.92,23.78l4.1-.86,1.52-.71,1.28.08,1.52-1.24,1.51-1.25.45-2a24.58,24.58,0,0,1,3.37-6.71c1.08-1.52,2.22-2.28,4-.59,1.25,1.21,1.74,3.43,2.11,7.09a1.93,1.93,0,0,0,1.93.93c1.27.09,2.51,0,2.92,1.16s.27,3.53-3.49,5.63l-2.48.86a2,2,0,0,0-1.91,1.12c-.53,1-.12,1.84.22,2.83a99.79,99.79,0,0,0,12.53,10.83,12.49,12.49,0,0,0,3.42,1.53,3.54,3.54,0,0,0,1.45,0c1.21-.12,2-.13,2.61.54a1.23,1.23,0,0,1-.18,2,3.46,3.46,0,0,1-1.71.71c-1.89.27-3.88.39-5.88.48l-1.49-.45-2.35-1.13-1-.88-2.9-2.45L265,39.43l-1.29-1.14-.86-.95L262,36.4l-1.35-1.83-1.24-1L258.15,33l-2.12.3,0,1.06-.52.81L250.74,41l-1.66,2.1-1.41,1.56L245.46,46l-1.16.23-2.45-.39-1.67-1.72c.18-1.83.13-1.92,2-1.94l.68-.6,1.17-.23.67-.86,1-.18.73-.7.26-.53.68-.33,1.1-.66.68-.59.52-1.07.88-1,.68-.86c.77-1.42.51-2.62-1.32-3l-3.19.05L245,31l-.44-1-.66-1.37-.39-1.11,0-1.43.25-.8Z"/><path class="cls-1" d="M315.13,15l.1-.41.16-.58.3-.39.24-.31.51-.31.73-.14.68.1.6.32.53.4.43.81.15.25.15.81.14.46-.26.35-.22.46-.36.21-1-.1-.79.22-.39.06-.28-.28-.48-.37-.62-.47-.17-.41Zm-3.44,2.8-2.28.08-.22.74-.21.46-.55.91.59,1.06.56.08.34.47.66.5.06.46.48,0,.44.33,1.21-.12.56-.2V21l-.24-.6.49-.19.1-.41-.17-.68-.41-.38-.21-.64-.61-.2Zm-9.73.81a3.08,3.08,0,0,1-.51-2.48L301,12.64l.24-.71.17-.62-.11-1.43.58-.76.43-.57.43-.57.74-.19.27-1.14,1.17-.16.74-.19,1,.29.86.65,1,1.06.12.83-.2,1,.33,1.14.78.75q2.43-.33,1.38-2.4l.31-.81.43-.57.22-.88.72-1,.74-.19,2-.61,1.5.39,1.09.53.76.58.67.5,1-.14.67-.69c1.9-.6,2.73-4,3.48-5.66C326.27-1,328.55.07,329.3,2.7l-.29,1,.33.55.4,1,1,.79,0,2.72c-1.24,2.88-2.47,1.72-4.84,4.41l-.11,1.72.76.58.05.93.49,1.12.47.95,1.19.61,1.7-.07,1.23.94,1.45.65c1.64,3.66,1.32,6.46-3.33,7.35l-1-.36-1.54.21-1.26.09-1,.3-1.58-.29c-2.55-1.7,1.43-2.47,2-2.5l1.1-.66-.32-1.15-1.19-.6c-3.56-1.2-7-1-9.26,2l.1,2,1,1.83.19,2.67.47,1.57,1.16,1L320,35l.67.5.85.05,1.38,1.34,1.17.44,1.6.35a4.07,4.07,0,0,1,1.61,3.7c-.14,2.8-1.3,2.49-3.06,2.58-1.66.72-3.68,2-4.55,3.8a14.18,14.18,0,0,1-4.26,2.76l-2.37.29c-1.33,0-2.77.46-4.31-.09a3.92,3.92,0,0,1-1.94-2.25c-1.15-2.32-.87-3.55,2.57-2.39a3.27,3.27,0,0,0,3.05.59l1.31.17c2.05-.82,3.08-1.79,1.87-3.07-2.32-1.69-5-1.74-7.67-1.33-1.11.41-1.82.5-2-.36-.32-.84.5-1.79,2.29-2.23l2.5-.35a2.21,2.21,0,0,0,1.42-2.66L312,33.68l.53-1.09.1-1.12L312,31l-1.14-.27-.86-.65-.47-1,.67-.68c.52-.81,0-1.39-.9-1.58l-1.77.75-.57.76-.94.64-1.43.11-.79.45-1.34.78-.69.52-1.2.59-1,.9-.93.05-.72.95-1.1.06c-.57,1.14-.8,1.18-1.86,1.41-2.19.5-4.63.86-5.23.25-1.31-.18-1.13-1.35.55-3.53.95-1.22,2.82-.94,4.3-1.18l1.5-.5,1.26-.09.84-.71,1.22-.43,1.2-.59,1.07-.83,1.41-.27,1.08-.83,0-1.63.08-1.28L304,22.1l-.52-1.29-.37-.88Z"/></g></g></svg>